<?xml version="1.0" standalone="no"?>
<!DOCTYPE svg PUBLIC "-//W3C//DTD SVG 20010904//EN"
 "http://www.w3.org/TR/2001/REC-SVG-20010904/DTD/svg10.dtd">
<svg version="1.0" xmlns="http://www.w3.org/2000/svg"
 width="1280.000000pt" height="640.000000pt" viewBox="0 0 1280.000000 640.000000"
 preserveAspectRatio="xMidYMid meet">
<metadata>
Created by potrace 1.15, written by Peter Selinger 2001-2017
</metadata>
<g transform="translate(0.000000,640.000000) scale(0.100000,-0.100000)"
fill="#000000" stroke="none">
<path d="M4470 5015 c-96 -13 -215 -31 -265 -40 -49 -9 -119 -21 -155 -27 -79
-13 -530 -5 -580 10 -113 35 -567 52 -1334 52 -529 -1 -684 -4 -776 -16 -63
-8 -239 -19 -390 -24 -512 -17 -921 -42 -948 -59 -7 -4 -4 -24 5 -56 13 -40
27 -59 71 -95 31 -25 60 -46 64 -48 19 -8 6 37 -17 58 -33 31 -17 50 40 50 34
0 56 -9 106 -44 35 -23 80 -51 99 -61 34 -17 33 -15 -19 40 -59 62 -57 75 8
75 23 0 44 -9 68 -30 18 -16 37 -30 42 -30 5 0 35 -16 67 -35 32 -19 69 -35
83 -35 23 0 20 6 -39 65 -58 59 -62 65 -39 65 27 0 55 -17 111 -66 49 -44 138
-88 150 -76 10 10 -1 19 -81 75 -48 33 -51 44 -13 58 49 19 116 5 182 -37 33
-21 87 -56 119 -76 32 -21 64 -38 71 -38 21 0 -19 39 -76 76 -95 61 -104 84
-33 84 50 0 69 -10 141 -72 66 -56 112 -78 165 -78 l37 0 -49 50 c-28 28 -65
61 -82 73 -18 12 -33 26 -33 31 0 5 34 6 76 3 71 -5 82 -9 145 -54 97 -68 120
-81 154 -88 27 -6 21 2 -50 71 l-80 77 81 -5 c90 -7 102 -11 165 -64 43 -36
146 -90 155 -82 2 3 -9 17 -25 32 -17 15 -44 40 -60 56 -41 38 -39 50 7 50 53
-1 114 -31 175 -89 47 -44 102 -71 145 -71 7 0 -14 25 -47 56 -71 65 -76 84
-26 84 50 0 90 -19 164 -78 35 -29 68 -52 73 -52 5 0 24 -11 41 -24 65 -48 60
-36 -23 48 -69 70 -82 88 -70 96 45 29 119 -2 230 -97 84 -72 170 -129 170
-112 0 23 -37 71 -70 92 -19 11 -54 36 -78 56 -51 41 -44 51 39 51 53 0 58 -2
119 -55 57 -49 108 -75 149 -75 8 0 -12 27 -43 60 -54 57 -63 80 -30 80 26 0
72 -29 144 -90 61 -53 116 -87 126 -77 2 2 -26 35 -61 74 -36 39 -65 74 -65
77 0 12 82 6 108 -8 15 -8 70 -49 122 -90 52 -42 101 -76 108 -76 26 0 10 27
-55 93 -56 55 -65 69 -53 78 18 12 82 4 120 -16 15 -8 67 -46 115 -86 48 -39
90 -68 93 -64 4 4 -28 39 -71 78 -43 40 -77 78 -77 85 0 7 11 17 24 23 39 18
119 -25 219 -120 117 -110 141 -105 38 7 -45 49 -81 92 -81 95 0 4 17 7 38 7
32 0 50 -11 131 -80 82 -71 111 -90 111 -76 0 2 -20 28 -45 57 -25 29 -45 57
-45 61 0 5 21 8 48 6 l47 -3 11 -90 c7 -49 15 -136 19 -192 4 -57 11 -103 16
-103 15 0 32 41 95 225 50 146 66 182 85 192 158 82 280 112 377 93 29 -5 61
-14 72 -20 10 -5 31 -10 47 -10 l28 1 -27 15 c-59 32 -22 69 67 68 52 0 72 -6
127 -37 37 -20 79 -37 95 -37 l28 1 -35 29 c-29 25 -32 31 -20 40 27 18 50 11
157 -45 102 -53 143 -66 143 -45 0 12 -28 40 -56 56 -10 7 -16 15 -12 19 13
13 89 -15 148 -54 75 -50 130 -84 130 -78 0 2 -16 24 -34 48 -19 24 -34 45
-32 47 2 1 40 -11 85 -27 51 -18 110 -50 152 -82 59 -43 199 -110 199 -94 0 3
-21 24 -46 47 -40 37 -43 43 -27 49 48 19 81 9 178 -56 112 -74 142 -84 72
-22 -27 23 -45 45 -41 50 4 4 24 7 45 7 30 0 59 -14 143 -70 57 -38 108 -70
112 -70 4 0 -9 15 -29 34 -80 73 -15 90 70 18 63 -53 112 -86 119 -79 3 3 1
22 -5 42 -9 34 -9 36 12 29 33 -9 157 -77 157 -85 0 -17 -158 -151 -199 -170
-147 -67 -175 -84 -245 -150 -41 -38 -78 -79 -81 -90 -12 -36 15 -87 72 -139
73 -67 126 -97 208 -117 59 -14 81 -15 160 -5 111 14 159 30 217 74 129 95
225 120 306 79 50 -26 249 -197 317 -274 62 -71 136 -187 211 -332 103 -202
210 -401 238 -444 15 -24 36 -62 46 -86 10 -23 25 -45 33 -48 20 -8 84 -118
173 -297 39 -80 104 -199 143 -264 40 -66 90 -153 112 -195 46 -88 99 -174
128 -212 48 -62 45 -120 -7 -156 -23 -15 -53 -18 -205 -21 -158 -3 -178 -2
-183 13 -4 10 -1 21 6 25 16 10 178 29 270 33 64 2 65 2 35 17 -23 11 -68 14
-190 12 -88 -1 -178 2 -200 6 -43 8 -59 34 -29 46 24 9 195 25 274 26 36 0 71
4 78 9 8 5 -49 10 -138 13 -116 4 -155 8 -166 20 -26 26 7 40 109 45 113 6
123 8 107 27 -6 8 -36 18 -66 22 -30 3 -57 10 -60 15 -3 5 5 22 17 38 44 59
25 65 -246 77 -153 6 -195 17 -195 49 0 13 25 15 155 15 85 0 155 4 155 9 0
15 -48 21 -199 28 -139 6 -146 7 -170 32 l-26 26 118 6 c107 5 154 17 129 33
-5 3 -54 8 -108 11 -159 9 -183 14 -195 37 -17 31 3 38 105 38 49 0 87 2 84 5
-2 3 -40 10 -84 16 -96 13 -174 44 -174 69 0 22 19 30 70 30 23 0 45 7 56 17
16 17 15 18 -32 31 -120 32 -159 47 -162 65 -3 14 4 17 42 17 25 0 46 4 46 8
0 12 -27 33 -70 56 -47 25 -128 104 -145 141 -8 17 -31 50 -52 74 l-39 43
-114 -57 c-128 -64 -130 -72 -27 -95 110 -24 132 -37 162 -93 63 -116 135
-234 155 -252 12 -11 32 -40 45 -65 13 -25 33 -54 45 -65 12 -11 30 -36 40
-55 10 -19 56 -83 101 -142 46 -59 109 -142 139 -183 30 -41 82 -107 117 -147
35 -39 63 -75 63 -80 0 -4 25 -35 55 -68 59 -64 67 -93 45 -157 -18 -51 -46
-58 -219 -58 -129 0 -160 3 -179 16 -15 11 -19 19 -12 24 6 4 79 10 163 14 84
4 161 13 172 19 16 9 -24 11 -181 12 l-200 0 -33 34 c-18 19 -29 36 -24 39 4
3 76 8 158 12 l150 8 -45 20 c-36 16 -68 20 -170 21 -126 1 -178 13 -188 44
-3 9 18 12 80 13 46 0 103 4 128 8 l45 8 -28 11 c-16 7 -77 12 -136 12 -123 0
-162 10 -182 46 -19 37 -2 44 108 44 50 0 94 4 97 8 5 9 -145 32 -205 32 -35
0 -79 23 -79 41 0 5 36 9 79 9 44 0 83 5 86 10 3 6 5 10 3 10 -165 15 -192 20
-214 41 -13 12 -24 28 -24 35 0 20 34 34 79 34 23 0 41 4 41 8 0 9 -50 28
-100 37 -73 13 -92 26 -116 82 -13 29 -24 60 -24 67 0 7 -10 26 -22 41 -34 43
-32 73 8 132 20 29 34 58 32 64 -9 26 -420 179 -480 179 -54 0 -22 -56 78
-134 88 -69 105 -93 125 -170 9 -37 29 -66 96 -139 47 -51 91 -105 98 -122 7
-16 27 -43 44 -59 17 -17 31 -35 31 -42 0 -7 10 -25 23 -41 13 -15 29 -42 36
-60 7 -17 21 -39 32 -49 10 -9 19 -22 19 -27 0 -15 63 -87 187 -213 150 -155
140 -138 113 -177 -27 -40 -116 -97 -150 -97 -57 0 -200 43 -200 60 0 4 51 11
112 15 l113 7 -39 20 c-29 15 -70 22 -155 28 -68 4 -127 13 -141 21 -23 13
-16 14 85 19 61 3 116 9 124 14 24 15 -62 36 -191 45 -189 15 -209 44 -42 63
l99 12 -55 8 c-238 37 -300 57 -300 99 0 20 35 27 150 32 62 2 64 3 36 15 -16
7 -80 19 -143 26 -120 14 -145 24 -124 50 9 11 37 16 99 18 l87 3 -40 19 c-22
10 -71 21 -110 23 -72 5 -115 23 -115 47 0 17 22 26 63 26 65 0 60 17 -9 34
-112 28 -152 60 -107 85 22 12 19 15 -37 33 l-45 15 -5 74 -5 74 -85 22 c-83
21 -200 31 -200 16 0 -8 110 -141 210 -253 32 -36 69 -88 83 -115 14 -28 59
-91 99 -141 40 -51 87 -112 104 -136 17 -25 83 -91 145 -147 63 -56 115 -106
117 -110 5 -14 -103 -81 -141 -88 -30 -4 -56 3 -138 38 l-101 44 94 5 c100 5
96 12 -22 31 -90 14 -142 32 -177 59 l-26 20 69 1 c109 1 122 13 37 33 -40 9
-81 16 -91 16 -28 0 -82 20 -82 31 0 5 24 9 54 9 105 0 118 24 18 33 -67 7
-156 31 -179 50 -7 5 -13 18 -13 28 0 17 8 19 63 19 132 0 102 36 -42 49 -68
6 -96 13 -121 31 -31 22 -32 24 -13 31 12 4 53 9 92 10 39 2 71 6 71 9 0 3
-20 11 -44 18 -66 17 -99 50 -120 122 -14 46 -30 73 -67 111 -26 27 -55 49
-63 49 -35 0 -35 34 0 105 28 57 34 80 34 136 0 89 -20 143 -72 189 -48 43
-85 62 -170 85 -35 10 -59 23 -62 33 -3 9 -12 49 -22 87 -30 126 -63 166 -165
202 -111 38 -217 36 -374 -10 -148 -43 -231 -60 -245 -52 -5 3 -15 26 -21 51
-14 53 -54 91 -144 134 -104 50 -176 63 -295 55 -57 -4 -112 -11 -121 -16 -9
-5 -27 -29 -39 -55 -13 -25 -29 -48 -36 -51 -27 -10 -268 59 -355 103 -101 50
-229 86 -314 88 -57 1 -64 -2 -104 -36 -24 -21 -73 -52 -108 -70 -63 -32 -64
-34 -58 -66 5 -29 2 -38 -32 -69 -72 -67 -153 -132 -196 -157 -42 -25 -135
-51 -145 -42 -3 3 33 44 79 91 80 82 105 113 97 120 -1 2 -55 -35 -118 -81
-244 -178 -275 -196 -329 -202 -58 -5 -66 7 -25 35 14 10 45 34 68 54 22 20
50 39 61 43 26 7 114 96 97 96 -19 0 -87 -36 -102 -55 -7 -9 -37 -27 -66 -41
-29 -14 -74 -44 -101 -68 -69 -61 -142 -96 -200 -96 l-48 0 50 45 c28 25 80
68 117 96 61 46 89 82 75 96 -8 7 -47 -15 -85 -48 -18 -16 -37 -29 -42 -29 -5
0 -50 -36 -101 -80 -51 -44 -111 -89 -135 -101 -43 -20 -105 -23 -110 -4 -3
10 56 60 115 98 34 22 79 83 68 93 -13 14 -54 -14 -139 -93 -100 -93 -151
-123 -213 -123 -72 0 -69 11 26 88 57 47 89 80 89 93 0 10 -2 19 -5 19 -3 0
-60 -42 -125 -92 -66 -51 -139 -103 -162 -115 -39 -21 -108 -31 -108 -16 0 3
43 47 95 96 53 49 94 92 91 94 -13 14 -63 -13 -117 -63 -71 -65 -158 -122
-198 -130 -38 -8 -52 14 -22 35 39 28 151 140 151 150 0 26 -39 2 -136 -85
-45 -40 -100 -82 -123 -93 -39 -20 -112 -29 -110 -13 0 4 32 34 70 67 85 72
101 95 66 95 -27 0 -55 -19 -138 -95 -72 -65 -114 -85 -181 -85 l-53 0 67 61
c39 35 68 69 68 80 0 38 -36 20 -134 -64 -38 -33 -84 -66 -102 -73 -41 -17
-144 -30 -144 -18 0 6 25 34 55 64 30 30 55 58 55 62 0 4 -13 8 -29 8 -20 0
-55 -19 -112 -61 -45 -34 -97 -68 -115 -75 -36 -15 -94 -19 -93 -6 0 4 43 42
95 85 53 44 94 81 92 83 -11 10 -84 -22 -151 -65 -81 -53 -85 -61 -103 -196
-4 -27 -11 -56 -16 -62 -6 -7 -8 -20 -4 -28 7 -18 167 -20 436 -5 260 15 730
77 955 125 60 13 189 33 285 45 96 11 195 25 220 31 25 6 95 22 155 34 61 13
135 30 165 39 92 25 192 45 260 51 36 4 106 15 155 25 121 25 475 77 605 89
98 9 395 6 467 -5 27 -4 34 -11 47 -50 17 -51 54 -99 101 -131 29 -20 34 -32
62 -146 28 -115 35 -132 88 -206 63 -87 85 -101 164 -101 25 0 51 -4 56 -8 6
-4 10 -69 10 -157 0 -123 3 -156 17 -181 22 -41 154 -163 184 -170 25 -6 85
-87 122 -165 28 -57 85 -104 174 -141 141 -60 210 -55 325 22 l73 48 62 -20
c94 -30 190 -28 254 5 28 14 54 33 57 42 8 20 33 19 120 -5 39 -11 117 -28
172 -39 55 -10 125 -30 155 -43 30 -14 66 -28 80 -31 14 -4 46 -22 70 -41 45
-34 178 -76 241 -76 16 0 57 20 100 49 l73 50 28 -24 c16 -14 48 -30 71 -36
23 -6 60 -17 82 -25 55 -19 207 -18 244 1 16 8 44 33 63 55 45 54 97 65 132
27 33 -36 96 -50 193 -44 98 6 200 47 230 94 10 15 32 43 49 60 27 28 38 33
80 33 65 0 218 17 281 30 62 14 153 90 176 148 l15 38 164 12 c139 10 188 18
332 57 92 25 218 63 280 86 192 70 179 69 433 58 359 -15 528 -42 791 -129 84
-27 221 -64 305 -81 83 -17 190 -41 237 -54 237 -67 516 -89 1000 -80 190 4
372 11 405 17 33 5 86 12 117 15 l58 5 11 42 c5 22 13 50 16 61 3 11 35 51 72
89 51 53 60 66 41 61 -41 -12 -98 -44 -148 -82 -66 -51 -140 -83 -189 -83 -63
0 -55 20 35 88 89 69 139 119 128 129 -12 13 -108 -45 -181 -109 -91 -80 -151
-108 -232 -108 -35 0 -63 4 -63 9 0 21 46 63 100 92 61 32 108 74 97 86 -10 9
-103 -36 -128 -64 -13 -12 -30 -23 -39 -23 -9 0 -29 -14 -46 -31 -32 -34 -121
-83 -172 -94 -19 -4 -54 -4 -80 0 l-45 7 36 21 c87 52 206 133 207 140 0 4 -8
7 -18 7 -16 0 -47 -19 -154 -96 -73 -52 -144 -76 -241 -82 -77 -4 -87 -3 -81
11 3 9 14 19 24 22 10 3 35 19 55 35 21 16 62 37 91 47 30 9 64 27 76 40 l21
23 -22 0 c-27 0 -82 -22 -101 -41 -8 -8 -53 -34 -100 -58 -69 -36 -98 -45
-155 -49 l-70 -5 50 46 c28 25 58 46 68 47 9 0 17 5 17 10 0 15 -4 14 -106
-30 -57 -24 -109 -40 -131 -39 -58 0 -116 13 -120 25 -2 6 60 41 137 79 77 38
135 72 129 76 -18 11 -75 -8 -191 -63 -117 -54 -198 -70 -253 -48 l-30 12 27
21 c15 12 72 39 128 60 55 21 100 43 100 48 0 18 -47 8 -117 -26 -91 -44 -171
-65 -243 -64 l-55 0 140 71 c77 39 134 73 127 76 -7 2 -72 -19 -143 -48 -71
-28 -145 -54 -164 -57 -37 -6 -105 4 -105 15 0 4 59 37 131 72 73 37 123 67
113 69 -9 1 -56 -15 -103 -38 -116 -55 -202 -76 -271 -65 l-53 9 59 37 c32 21
94 50 137 64 46 15 76 31 74 37 -7 22 -71 6 -192 -48 -131 -58 -175 -70 -218
-57 -28 7 -24 10 75 65 56 31 99 57 94 57 -5 0 -67 -18 -137 -40 -136 -41
-229 -59 -229 -43 0 5 30 20 68 33 126 43 99 54 -48 19 -49 -11 -108 -19 -132
-17 l-43 3 39 24 c38 24 38 24 18 40 -11 9 -29 36 -40 61 -10 25 -30 55 -43
67 -31 28 -101 53 -149 53 -21 0 -57 7 -80 15 -57 20 -60 19 -60 -11 l0 -27
-82 6 -83 7 33 -26 c26 -21 30 -29 21 -40 -14 -17 -59 -18 -113 -3 -21 6 -50
8 -65 4 l-26 -7 37 -19 c47 -24 56 -39 34 -55 -15 -10 -26 -10 -64 2 -26 9
-55 18 -64 21 -31 9 -19 -14 17 -36 42 -24 43 -35 9 -57 -23 -16 -29 -16 -84
0 -33 9 -70 16 -82 16 -21 -1 -20 -2 7 -16 68 -36 77 -44 64 -60 -15 -18 -71
-18 -133 1 -82 25 -97 18 -33 -17 31 -17 57 -35 57 -39 0 -12 -83 -11 -134 2
-23 6 -58 9 -77 7 -33 -3 -32 -4 29 -26 34 -13 60 -27 57 -33 -11 -16 -63 -10
-155 20 -49 16 -90 28 -90 26 0 -1 29 -19 65 -40 35 -21 62 -42 59 -46 -9 -16
-75 -9 -158 15 -105 31 -144 38 -151 26 -16 -26 -122 13 -196 71 -63 49 -189
197 -189 221 0 11 -14 44 -31 72 -31 50 -69 145 -69 173 0 12 42 -30 148 -147
31 -33 30 -30 -19 73 -28 60 -49 111 -46 114 12 12 48 -11 64 -40 33 -65 222
-251 238 -235 2 2 -45 61 -105 130 -84 98 -106 129 -96 137 10 8 35 -8 102
-65 94 -81 132 -109 138 -103 2 2 -29 44 -70 92 -41 49 -74 93 -74 98 0 18 36
8 90 -26 59 -38 115 -51 74 -17 -35 28 -54 65 -44 82 8 13 13 13 41 -2 64 -37
102 -13 42 26 -30 19 -57 25 -127 31 -49 3 -108 12 -130 20 -23 8 -84 26 -136
40 -52 15 -114 37 -137 51 -80 46 -171 133 -209 197 -20 34 -46 73 -59 87 -12
14 -46 78 -74 143 -89 207 -120 368 -127 667 -3 113 -7 215 -9 226 -3 13 -15
24 -30 28 -14 4 -53 31 -86 62 -96 88 -119 49 -24 -43 57 -55 74 -97 55 -134
-12 -21 -18 -15 -144 110 -72 72 -134 131 -138 131 -4 0 0 -20 8 -44 11 -33
37 -65 95 -120 79 -76 96 -106 60 -106 -35 0 -48 11 -157 131 -60 66 -110 116
-112 110 -5 -14 33 -83 58 -106 22 -19 50 -73 50 -95 0 -33 -45 3 -125 101
-49 61 -98 117 -108 126 -16 16 -17 14 -3 -25 8 -22 20 -51 26 -63 8 -13 8
-25 2 -31 -6 -6 -31 11 -70 46 -33 31 -62 56 -65 56 -2 0 -4 -33 -3 -72 l1
-73 -105 -53 c-58 -29 -148 -66 -200 -83 -86 -28 -104 -30 -200 -27 -132 4
-175 23 -207 88 -13 24 -23 55 -23 69 0 37 118 143 208 187 72 35 102 38 102
11 0 -21 -100 -103 -167 -139 -32 -16 -65 -36 -73 -44 -12 -12 -11 -14 10 -14
50 1 270 166 270 203 0 26 70 101 126 134 98 59 184 135 231 206 48 72 67 86
156 112 49 14 72 15 168 5 61 -6 161 -21 222 -35 62 -13 148 -29 192 -35 44
-6 107 -19 140 -30 75 -22 190 -51 232 -57 29 -5 34 -10 43 -47 33 -126 61
-169 168 -262 49 -41 97 -72 140 -89 129 -51 203 -101 421 -283 169 -142 211
-182 232 -224 11 -21 26 -38 35 -38 8 0 32 -9 54 -20 22 -11 52 -20 67 -20
l27 0 -42 43 c-23 23 -42 51 -42 60 0 35 30 29 91 -17 37 -28 71 -46 88 -46
25 0 24 3 -31 61 -32 33 -58 65 -58 70 0 28 100 -17 203 -93 37 -28 70 -48 74
-45 3 3 -18 30 -46 60 -28 30 -51 57 -51 60 0 14 66 6 107 -12 23 -11 65 -38
93 -60 74 -59 104 -55 40 5 -28 26 -50 50 -50 54 0 4 11 11 25 14 34 9 107
-24 143 -63 16 -18 42 -33 62 -37 l35 -7 -28 30 c-30 33 -28 63 5 63 26 0 56
-17 101 -56 51 -47 88 -45 52 2 -8 10 -15 23 -15 28 0 12 58 -1 108 -26 35
-16 46 -18 52 -8 8 14 22 13 202 -10 57 -8 253 -10 570 -8 450 3 485 5 517 22
27 15 68 21 190 27 86 5 280 16 431 25 311 19 752 22 913 5 95 -9 111 -9 142
7 19 9 35 20 35 23 0 3 -75 15 -167 27 -501 64 -927 68 -2041 21 -279 -11
-472 -10 -1160 11 -465 15 -670 42 -776 104 -25 14 -127 99 -228 187 -450 395
-693 559 -830 559 -17 0 -65 9 -107 20 -208 54 -336 81 -427 90 -115 11 -294
-1 -364 -24 -25 -8 -62 -17 -84 -21 -29 -5 -56 -22 -112 -76 -65 -62 -77 -69
-113 -69 -27 0 -48 7 -68 24 -32 27 -102 66 -119 66 -6 0 -55 13 -108 30 -101
31 -457 110 -586 130 -41 6 -127 25 -190 40 -63 16 -142 34 -175 40 -33 5 -91
19 -130 31 -111 32 -324 34 -545 4z m-302 -1780 c37 -11 68 -31 112 -73 55
-52 60 -61 60 -99 0 -33 -5 -46 -26 -62 -37 -29 -55 -26 -91 12 -49 50 -172
220 -167 229 8 13 55 9 112 -7z m-722 -50 c7 -19 -10 -47 -65 -102 -48 -50
-85 -61 -53 -15 11 15 23 43 27 62 4 19 14 43 23 53 19 21 61 22 68 2z m124
-29 c0 -22 -89 -106 -112 -106 -20 0 -20 1 -3 28 45 69 67 92 91 92 14 0 24
-6 24 -14z m119 -25 c28 -18 -22 -71 -68 -71 -30 0 -26 24 10 54 34 29 38 30
58 17z m440 -91 c51 -55 81 -96 77 -105 -3 -8 -23 -23 -45 -34 l-39 -20 -36
39 c-46 51 -66 91 -66 132 0 40 10 78 19 78 4 0 45 -41 90 -90z m-302 54 c7
-20 -27 -44 -63 -44 l-35 0 23 30 c16 22 29 30 47 28 13 -2 26 -8 28 -14z
m998 -52 c-77 -38 -148 -77 -158 -86 -23 -23 -22 -69 2 -90 11 -10 29 -38 41
-63 32 -68 61 -93 110 -93 l42 0 -31 25 c-16 14 -42 50 -57 81 -39 80 -29 96
99 161 124 63 141 68 178 53 22 -10 40 -35 79 -112 l50 -99 -50 -53 c-36 -38
-80 -69 -159 -109 -60 -32 -119 -57 -131 -57 -13 0 -38 11 -56 25 -55 42 -62
34 -39 -42 11 -35 -11 -28 -56 17 -72 73 -121 43 -59 -35 17 -21 30 -41 30
-45 0 -19 -52 7 -104 51 -32 27 -62 49 -67 49 -26 0 -18 -35 20 -85 78 -104
45 -114 -64 -20 -41 36 -79 65 -84 65 -24 0 -17 -21 29 -90 27 -41 47 -76 45
-78 -13 -13 -61 15 -125 73 -40 36 -75 64 -77 62 -2 -2 6 -26 17 -52 32 -75
23 -88 -28 -40 -36 34 -49 57 -82 150 -22 61 -40 125 -40 143 0 33 29 72 53
72 28 0 198 73 233 100 20 17 43 30 51 30 8 0 67 25 132 55 143 66 267 104
341 104 l55 1 -140 -68z m-1795 47 c0 -26 -77 -87 -129 -103 -30 -9 -56 -15
-58 -13 -1 2 32 31 74 65 71 58 113 77 113 51z m2098 -14 c32 -27 76 -107 70
-126 -3 -9 -118 133 -118 146 0 12 21 3 48 -20z m-1144 -76 c14 -17 26 -41 26
-54 0 -12 6 -28 14 -34 17 -14 39 -71 27 -71 -10 0 -67 61 -80 88 -7 13 -19
41 -26 63 -12 33 -12 39 0 39 7 0 25 -14 39 -31z m1190 -355 c-139 -68 -168
-93 -161 -139 3 -18 24 -60 46 -93 23 -33 46 -75 53 -93 6 -19 18 -42 26 -51
14 -16 13 -18 -2 -18 -10 0 -42 20 -73 45 -51 42 -73 49 -73 24 0 -6 14 -31
31 -55 35 -52 34 -82 -3 -63 -13 7 -41 27 -64 46 -67 54 -88 37 -35 -28 29
-35 43 -67 29 -68 -27 -3 -40 4 -96 49 -34 28 -62 46 -62 40 0 -6 14 -37 30
-70 36 -72 37 -80 6 -80 -18 0 -37 16 -71 59 -49 62 -72 78 -88 62 -15 -15 12
-78 44 -104 21 -16 28 -28 23 -40 -13 -35 -49 -18 -124 58 -41 41 -75 73 -77
71 -2 -2 19 -50 47 -106 27 -57 50 -109 50 -117 0 -14 -16 -18 -22 -5 -6 14
-98 92 -108 92 -18 0 -11 -19 30 -87 22 -37 40 -75 40 -85 0 -30 -85 39 -107
87 -27 59 -27 303 1 333 10 12 129 77 266 146 136 69 253 132 259 140 7 8 36
23 64 32 29 10 79 30 112 46 33 15 74 28 90 27 24 0 8 -11 -81 -55z m275 7
c21 -21 55 -69 76 -105 l37 -66 -27 -36 c-15 -19 -39 -41 -54 -47 -14 -6 -48
-26 -75 -44 -66 -45 -95 -43 -122 8 -11 22 -22 29 -44 29 -36 0 -36 0 -9 -52
25 -49 15 -68 -26 -50 -15 7 -23 17 -20 22 5 8 -53 137 -103 232 -2 3 5 9 15
12 10 3 70 35 133 71 140 79 163 82 219 26z m94 5 c15 -20 27 -47 27 -63 0
-25 -4 -22 -35 30 -19 32 -35 60 -35 63 0 13 18 0 43 -30z m-63 -437 c57 -34
90 -70 90 -98 0 -37 -140 -179 -210 -214 -30 -15 -62 -27 -73 -27 -18 0 -157
115 -157 131 0 4 51 44 113 90 61 45 127 95 145 111 39 34 47 34 92 7z m4174
-38 c8 -12 -139 -35 -161 -26 -13 6 -4 10 35 16 29 4 56 10 59 13 9 9 61 7 67
-3z m-4518 -100 c-48 -48 -57 -64 -53 -83 4 -12 47 -67 96 -120 94 -101 116
-132 106 -148 -12 -19 -33 -10 -131 55 -93 61 -124 75 -124 58 0 -5 23 -28 51
-52 28 -24 68 -66 90 -94 36 -45 38 -52 25 -65 -22 -22 -41 -10 -151 91 -60
56 -101 87 -110 83 -9 -3 -12 -12 -8 -23 12 -34 84 -118 129 -151 26 -19 44
-40 44 -52 0 -36 -35 -22 -123 50 -74 61 -137 100 -137 85 0 -3 34 -45 75 -93
71 -82 74 -87 51 -90 -35 -4 -81 22 -138 79 -81 81 -106 163 -72 234 20 43
118 137 169 162 70 35 139 76 160 93 21 18 69 38 95 39 8 1 -12 -26 -44 -58z
m2527 -1 c5 -4 -26 -10 -67 -14 -59 -5 -82 -3 -106 9 -16 8 -30 17 -30 19 0 7
195 -6 203 -14z m-2039 -38 c-18 -45 -29 -56 -43 -48 -12 8 -5 30 21 69 27 38
41 24 22 -21z m-251 -227 c1 -5 -10 -11 -25 -13 -16 -2 -28 1 -28 7 0 20 49
26 53 6z m206 -119 c16 -19 4 -59 -26 -88 -21 -20 -35 -23 -96 -23 -76 1 -137
23 -137 49 0 8 21 28 47 45 42 28 54 31 123 31 54 0 81 -4 89 -14z"/>
</g>
</svg>
